HIERARCHY
ROOT joint_Root
{
	OFFSET 0.0 0.0 0.0
	CHANNELS 6 Xposition Yposition Zposition Zrotation Xrotation Yrotation 
	JOINT Hips
	{
		OFFSET -0.726466 93.3139 -2.00062
		CHANNELS 6 Xposition Yposition Zposition Zrotation Xrotation Yrotation 
		JOINT Spine
		{
			OFFSET 15.7357 0.0 0.0
			CHANNELS 6 Xposition Yposition Zposition Zrotation Xrotation Yrotation 
			JOINT Chest
			{
				OFFSET 8.98455 -0.406207 0.0
				CHANNELS 6 Xposition Yposition Zposition Zrotation Xrotation Yrotation 
				JOINT Neck
				{
					OFFSET 16.3773 0.0 0.0
					CHANNELS 6 Xposition Yposition Zposition Zrotation Xrotation Yrotation 
					JOINT Head
					{
						OFFSET 6.45672 0.0 0.0
						CHANNELS 6 Xposition Yposition Zposition Zrotation Xrotation Yrotation 
						End Site
						{
							OFFSET 0.0 0.0 0.0
						}
					}
				}
				JOINT Shoulder_L
				{
					OFFSET 12.9942 -0.242716 4.98039
					CHANNELS 6 Xposition Yposition Zposition Zrotation Xrotation Yrotation 
					JOINT UpperArm_L
					{
						OFFSET 5.34809 0.0 0.0
						CHANNELS 6 Xposition Yposition Zposition Zrotation Xrotation Yrotation 
						JOINT LowerArm_L
						{
							OFFSET 24.3286 1.87007e-05 0.0
							CHANNELS 6 Xposition Yposition Zposition Zrotation Xrotation Yrotation 
							JOINT Hand_L
							{
								OFFSET 22.2916 0.0 0.0
								CHANNELS 6 Xposition Yposition Zposition Zrotation Xrotation Yrotation 
								End Site
								{
									OFFSET 0.0 0.0 0.0
								}
							}
						}
					}
				}
				JOINT Shoulder_R
				{
					OFFSET 12.9945 -0.242716 -4.98039
					CHANNELS 6 Xposition Yposition Zposition Zrotation Xrotation Yrotation 
					JOINT UpperArm_R
					{
						OFFSET -5.34813 0.0 0.0
						CHANNELS 6 Xposition Yposition Zposition Zrotation Xrotation Yrotation 
						JOINT LowerArm_R
						{
							OFFSET -24.3289 0.000322201 0.0
							CHANNELS 6 Xposition Yposition Zposition Zrotation Xrotation Yrotation 
							JOINT Hand_R
							{
								OFFSET -22.2915 -0.000108084 0.0
								CHANNELS 6 Xposition Yposition Zposition Zrotation Xrotation Yrotation 
								End Site
								{
									OFFSET 0.0 0.0 0.0
								}
							}
						}
					}
				}
			}
		}
		JOINT UpperLeg_L
		{
			OFFSET -2.19248 -6.46944 0.0
			CHANNELS 6 Xposition Yposition Zposition Zrotation Xrotation Yrotation 
			JOINT LowerLeg_L
			{
				OFFSET 39.0811 0.0 -1.23785e-05
				CHANNELS 6 Xposition Yposition Zposition Zrotation Xrotation Yrotation 
				JOINT Foot_L
				{
					OFFSET 40.9854 0.0 -1.26872e-05
					CHANNELS 6 Xposition Yposition Zposition Zrotation Xrotation Yrotation 
					JOINT Toes_L
					{
						OFFSET 11.7543 0.0 0.0
						CHANNELS 6 Xposition Yposition Zposition Zrotation Xrotation Yrotation 
						End Site
						{
							OFFSET 0.0 0.0 0.0
						}
					}
				}
			}
		}
		JOINT UpperLeg_R
		{
			OFFSET -2.19251 6.46944 0.0
			CHANNELS 6 Xposition Yposition Zposition Zrotation Xrotation Yrotation 
			JOINT LowerLeg_R
			{
				OFFSET -39.0811 -0.00228153 -0.0401928
				CHANNELS 6 Xposition Yposition Zposition Zrotation Xrotation Yrotation 
				JOINT Foot_R
				{
					OFFSET -40.9854 0.0 0.0
					CHANNELS 6 Xposition Yposition Zposition Zrotation Xrotation Yrotation 
					JOINT Toes_R
					{
						OFFSET -11.7543 0.0 0.0
						CHANNELS 6 Xposition Yposition Zposition Zrotation Xrotation Yrotation 
						End Site
						{
							OFFSET 0.0 0.0 0.0
						}
					}
				}
			}
		}
	}
}
MOTION
Frames:	8
Frame Time:	0.0333333
0.000000 0.000000 0.000000 0.000000 0.000000 -0.000000 -0.905232 92.482000 -0.598052 88.101600 0.360610 2.899020 15.735700 0.000005 -0.000001 85.727100 85.780500 -84.819500 8.984550 -0.406207 -0.000000 0.655719 -0.684852 1.817900 16.377300 -0.000001 -0.000001 2.877530 -2.890960 0.517569 6.456720 -0.000001 -0.000000 6.097540 -3.803810 -0.932661 12.994200 -0.242716 4.980390 -89.735800 -0.777876 -71.240700 5.348090 -0.000007 -0.000001 -70.990400 38.171300 -12.018500 24.328600 0.000019 0.000005 1.524740 3.578640 -23.094700 22.291600 -0.000001 0.000005 5.865010 5.481660 -5.812120 12.994500 -0.242716 -4.980390 88.448400 4.688490 -71.665500 -5.348130 -0.000001 -0.000004 -65.991500 38.483500 -13.959900 -24.328900 0.000322 -0.000009 3.867650 9.741770 -21.783300 -22.291500 -0.000108 -0.000004 8.086580 5.349380 -1.358930 -2.192480 -6.469440 -0.000000 -175.304000 -7.017350 -3.256440 39.081100 -0.000007 -0.000012 -0.103874 0.263322 21.528000 40.985400 -0.000006 -0.000013 -0.119044 5.336000 -65.616400 11.754300 -0.000000 0.000003 -0.000046 -0.000528 -16.598100 -2.192510 6.469440 -0.000001 -179.587000 14.817000 179.545000 -39.081100 -0.002282 -0.040193 -0.024104 0.084608 17.962000 -40.985400 0.000008 0.000006 4.037350 7.236840 -65.277300 -11.754300 -0.000006 -0.000006 -0.008779 -0.094274 -20.412800
0.000000 0.000000 0.000000 0.000000 0.000000 -0.000000 -0.916651 92.481300 -0.590403 88.115200 0.464034 2.893410 15.735700 0.000005 -0.000001 85.403600 85.780100 -84.543200 8.984550 -0.406207 -0.000000 0.652806 -0.729493 1.723730 16.377300 -0.000001 -0.000001 2.727780 -2.866420 0.494295 6.456720 -0.000001 -0.000000 6.013990 -3.771270 -0.870632 12.994200 -0.242716 4.980390 -89.708300 -0.856254 -71.188300 5.348090 -0.000007 -0.000001 -71.089800 37.995300 -11.929600 24.328600 0.000019 0.000005 1.459860 3.431160 -23.064500 22.291600 -0.000001 0.000005 5.890360 5.479220 -5.718590 12.994500 -0.242716 -4.980390 88.424300 4.723040 -71.526700 -5.348130 -0.000001 -0.000004 -65.469600 36.669400 -14.151300 -24.328900 0.000322 -0.000009 4.619730 10.217200 -24.496100 -22.291500 -0.000108 -0.000004 7.637120 5.342980 -1.166730 -2.192480 -6.469440 -0.000000 -175.318000 -6.975750 -3.269050 39.081100 -0.000007 -0.000012 -0.102525 0.259955 21.524000 40.985400 -0.000006 -0.000013 -0.112479 5.377260 -65.611900 11.754300 -0.000000 0.000003 -0.000047 -0.000541 -16.598600 -2.192510 6.469440 -0.000001 -179.594000 14.857700 179.554000 -39.081100 -0.002282 -0.040193 -0.025091 0.087694 17.953900 -40.985400 0.000008 0.000006 3.985870 7.179100 -65.276300 -11.754300 -0.000006 -0.000006 -0.008483 -0.091930 -20.317100
0.000000 0.000000 0.000000 0.000000 0.000000 -0.000000 -0.924171 92.487700 -0.621964 88.136500 0.498932 2.881840 15.735700 0.000005 -0.000001 84.625600 85.786200 -83.820900 8.984550 -0.406207 -0.000000 0.631100 -0.839194 1.612850 16.377300 -0.000001 -0.000001 2.619120 -2.797200 0.466168 6.456720 -0.000001 -0.000000 5.915040 -3.628060 -0.890239 12.994200 -0.242716 4.980390 -89.689700 -0.907683 -71.127500 5.348090 -0.000007 -0.000001 -71.312800 37.556600 -11.667900 24.328600 0.000019 0.000005 1.534150 3.614120 -23.018600 22.291600 -0.000001 0.000005 6.005590 5.481900 -5.821320 12.994500 -0.242716 -4.980390 88.355900 4.833990 -71.190900 -5.348130 -0.000001 -0.000004 -64.368400 33.028900 -15.098000 -24.328900 0.000322 -0.000009 5.023830 9.269900 -28.631100 -22.291500 -0.000108 -0.000004 7.698120 5.327990 -0.727719 -2.192480 -6.469440 -0.000000 -175.324000 -7.036360 -3.293250 39.081100 -0.000007 -0.000012 -0.104689 0.266014 21.482000 40.985400 -0.000006 -0.000013 -0.105269 5.469450 -65.557300 11.754300 -0.000000 0.000003 -0.000044 -0.000509 -16.597300 -2.192510 6.469440 -0.000001 -179.588000 14.801500 179.527000 -39.081100 -0.002282 -0.040193 -0.023673 0.083364 17.945000 -40.985400 0.000008 0.000006 4.023610 7.112700 -65.260400 -11.754300 -0.000006 -0.000006 -0.008500 -0.092065 -20.322600
0.000000 0.000000 0.000000 0.000000 0.000000 -0.000000 -0.915532 92.494400 -0.682762 88.127400 0.379913 2.850710 15.735700 0.000005 -0.000001 83.640500 85.819900 -82.901500 8.984550 -0.406207 -0.000000 0.549604 -0.972254 1.481530 16.377300 -0.000001 -0.000001 2.628130 -2.709570 0.458989 6.456720 -0.000001 -0.000000 5.800920 -3.398290 -0.991603 12.994200 -0.242716 4.980390 -89.666600 -0.973283 -71.089800 5.348090 -0.000007 -0.000001 -71.594600 37.046800 -11.276500 24.328600 0.000019 0.000005 1.634360 3.865480 -22.939700 22.291600 -0.000001 0.000005 5.947540 5.481190 -5.794040 12.994500 -0.242716 -4.980390 88.327500 4.804010 -70.778900 -5.348130 -0.000001 -0.000004 -62.725000 28.542100 -17.215000 -24.328900 0.000322 -0.000009 5.233420 7.869970 -33.786000 -22.291500 -0.000108 -0.000004 9.147200 5.315540 -0.369519 -2.192480 -6.469440 -0.000000 -175.326000 -7.189280 -3.348740 39.081100 -0.000007 -0.000012 -0.102458 0.260425 21.476100 40.985400 -0.000006 -0.000013 -0.087696 5.494790 -65.518600 11.754300 -0.000000 0.000003 -0.000048 -0.000545 -16.598700 -2.192510 6.469440 -0.000001 -179.563000 14.747300 179.438000 -39.081100 -0.002282 -0.040193 -0.024379 0.085568 17.940500 -40.985400 0.000008 0.000006 3.995230 7.141480 -65.194300 -11.754300 -0.000006 -0.000006 -0.008389 -0.091179 -20.286400
0.000000 0.000000 0.000000 0.000000 0.000000 -0.000000 -0.885708 92.498600 -0.724532 88.091400 0.093454 2.876110 15.735700 0.000005 -0.000001 83.112100 85.854200 -82.448600 8.984550 -0.406207 -0.000000 0.472240 -1.036300 1.330310 16.377300 -0.000001 -0.000001 2.636880 -2.597750 0.564153 6.456720 -0.000001 -0.000000 5.789790 -3.182060 -1.187420 12.994200 -0.242716 4.980390 -89.655700 -1.000990 -71.017900 5.348090 -0.000007 -0.000001 -71.669900 36.849000 -11.075200 24.328600 0.000019 0.000005 1.637250 3.912660 -22.727800 22.291600 -0.000001 0.000005 5.892980 5.477000 -5.634070 12.994500 -0.242716 -4.980390 88.343500 4.643180 -70.341000 -5.348130 -0.000001 -0.000004 -60.603500 23.614200 -20.504000 -24.328900 0.000322 -0.000009 6.338600 7.580990 -40.098100 -22.291500 -0.000108 -0.000004 10.609300 5.300560 0.054680 -2.192480 -6.469440 -0.000000 -175.307000 -7.357240 -3.316880 39.081100 -0.000007 -0.000012 -0.101222 0.257114 21.488900 40.985400 -0.000006 -0.000013 -0.093654 5.354410 -65.518600 11.754300 -0.000000 0.000003 -0.000039 -0.000453 -16.595200 -2.192510 6.469440 -0.000001 -179.533000 14.537600 179.407000 -39.081100 -0.002282 -0.040193 -0.022613 0.080027 17.958500 -40.985400 0.000008 0.000006 4.114790 7.224930 -65.172800 -11.754300 -0.000006 -0.000006 -0.008940 -0.095538 -20.464500
0.000000 0.000000 0.000000 0.000000 0.000000 -0.000000 -0.851459 92.493600 -0.766710 88.063800 -0.233876 2.937320 15.735700 0.000005 -0.000001 82.904300 85.893100 -82.332600 8.984550 -0.406207 -0.000000 0.390493 -1.051110 1.146250 16.377300 -0.000001 -0.000001 2.693170 -2.510770 0.699007 6.456720 -0.000001 -0.000000 5.736980 -3.068020 -1.282930 12.994200 -0.242716 4.980390 -89.651800 -1.004760 -70.884200 5.348090 -0.000007 -0.000001 -71.611000 36.838600 -11.054800 24.328600 0.000019 0.000005 1.634980 3.981750 -22.345100 22.291600 -0.000001 0.000005 6.019970 5.479510 -5.729450 12.994500 -0.242716 -4.980390 88.435800 4.307980 -70.022700 -5.348130 -0.000001 -0.000004 -58.441000 18.176900 -24.493800 -24.328900 0.000322 -0.000009 8.450050 7.780890 -47.654900 -22.291500 -0.000108 -0.000004 11.995600 5.276750 0.713394 -2.192480 -6.469440 -0.000000 -175.300000 -7.523100 -3.262620 39.081100 -0.000007 -0.000012 -0.101114 0.255956 21.556200 40.985400 -0.000006 -0.000013 -0.092216 5.195390 -65.558400 11.754300 -0.000000 0.000003 -0.000039 -0.000460 -16.595500 -2.192510 6.469440 -0.000001 -179.554000 14.373700 179.397000 -39.081100 -0.002282 -0.040193 -0.025121 0.087511 18.006900 -40.985400 0.000008 0.000006 3.973550 7.412020 -65.123000 -11.754300 -0.000006 -0.000006 -0.008410 -0.091345 -20.293100
0.000000 0.000000 0.000000 0.000000 0.000000 -0.000000 -0.807438 92.493800 -0.780311 88.014900 -0.513597 3.027700 15.735700 0.000005 -0.000001 83.298900 85.944200 -82.838700 8.984550 -0.406207 -0.000000 0.294433 -0.976272 0.922397 16.377300 -0.000001 -0.000001 2.752410 -2.519260 0.881091 6.456720 -0.000001 -0.000000 5.749110 -3.107480 -1.165900 12.994200 -0.242716 4.980390 -89.648600 -1.006990 -70.759100 5.348090 -0.000007 -0.000001 -71.564800 36.513400 -10.986800 24.328600 0.000019 0.000005 1.734640 4.244610 -22.252500 22.291600 -0.000001 0.000005 5.951260 5.475740 -5.586090 12.994500 -0.242716 -4.980390 88.575400 3.888570 -69.861700 -5.348130 -0.000001 -0.000004 -56.225800 12.539700 -28.754400 -24.328900 0.000322 -0.000009 10.516700 7.205320 -55.955900 -22.291500 -0.000108 -0.000004 14.612900 5.269110 0.920605 -2.192480 -6.469440 -0.000000 -175.285000 -7.521670 -3.160660 39.081100 -0.000007 -0.000012 -0.101730 0.257032 21.593000 40.985400 -0.000006 -0.000013 -0.112244 4.927580 -65.592400 11.754300 -0.000000 0.000003 -0.000042 -0.000488 -16.596600 -2.192510 6.469440 -0.000001 -179.550000 14.267100 179.461000 -39.081100 -0.002282 -0.040193 -0.021678 0.076803 18.032100 -40.985400 0.000008 0.000006 4.171300 7.578590 -65.149000 -11.754300 -0.000006 -0.000006 -0.008582 -0.092715 -20.349100
0.000000 0.000000 0.000000 0.000000 0.000000 -0.000000 -0.767387 92.486400 -0.772031 87.934400 -0.686682 3.139500 15.735700 0.000005 -0.000001 83.812900 85.992500 -83.441900 8.984550 -0.406207 -0.000000 0.205302 -0.888046 0.743034 16.377300 -0.000001 -0.000001 2.728050 -2.554980 1.042170 6.456720 -0.000001 -0.000000 5.828480 -3.229590 -1.035250 12.994200 -0.242716 4.980390 -89.663700 -0.954632 -70.589400 5.348090 -0.000007 -0.000001 -71.473400 36.179600 -10.890000 24.328600 0.000019 0.000005 1.675340 4.068170 -22.405100 22.291600 -0.000001 0.000005 5.942870 5.475440 -5.574780 12.994500 -0.242716 -4.980390 88.755000 3.391210 -69.826800 -5.348130 -0.000001 -0.000004 -54.382700 6.249700 -33.220700 -24.328900 0.000322 -0.000009 11.489600 5.606060 -64.335400 -22.291500 -0.000108 -0.000004 16.965700 5.269020 0.923185 -2.192480 -6.469440 -0.000000 -175.212000 -7.564050 -3.063170 39.081100 -0.000007 -0.000012 -0.102628 0.257897 21.699800 40.985400 -0.000006 -0.000013 -0.104195 4.828710 -65.675200 11.754300 -0.000000 0.000003 -0.000049 -0.000553 -16.599100 -2.192510 6.469440 -0.000001 -179.519000 14.297400 179.561000 -39.081100 -0.002282 -0.040193 -0.018876 0.068114 18.052600 -40.985400 0.000008 0.000006 4.271930 7.723930 -65.168600 -11.754300 -0.000006 -0.000006 -0.008295 -0.090426 -20.255600
